<svg width="1000" height="1000" fill="none" xmlns="http://www.w3.org/2000/svg"><rect x="130" y="264" width="362" height="76" rx="6" fill="#B3F5FF"/><path d="M102.956 316c2.304 0 4.56-.24 7.104-.72l2.208 6.72h6.336l-11.616-31.536h-7.776L87.548 322h6.336l2.208-6.72c2.448.48 4.656.72 6.864.72zm0-4.704c-1.68 0-3.408-.144-5.376-.432l5.52-16.608 5.472 16.56c-2.064.336-3.84.48-5.616.48zm63.834-2.928c0-3.6 1.776-5.328 4.416-5.328 2.592 0 3.696 1.632 3.696 4.896V322h7.152v-14.688c0-6.672-2.448-10.368-7.728-10.368-3.936 0-6.72 2.016-8.112 5.568-1.056-3.6-3.456-5.568-7.344-5.568-3.408 0-5.904 1.728-7.344 4.752v-4.224h-7.152V322h7.152v-13.632c0-3.6 1.776-5.328 4.416-5.328 2.592 0 3.696 1.296 3.696 4.272V322h7.152v-13.632zm25.536 1.344c0-4.224 1.632-6.576 4.848-6.576 2.496 0 4.464 1.68 4.464 5.616v1.968c0 3.888-2.256 5.568-4.752 5.568-2.976 0-4.56-2.16-4.56-6.576zM201.638 322h7.152v-24.528h-7.152v4.272c-1.344-2.928-3.744-4.752-7.104-4.752-6.384 0-9.264 5.808-9.264 12.72 0 7.344 2.832 12.768 8.832 12.768 3.36 0 6.048-1.584 7.536-4.848V322zm18.887-12.864c0-3.936 2.352-5.136 7.344-4.752v-7.248c-3.84-.24-6 1.728-7.344 5.04v-4.704h-7.104V322h7.104v-12.864zM237.683 322v-11.28l7.632 11.28h8.256l-9.024-12.48 8.736-12.048h-8.112l-7.488 11.232v-20.736h-7.152V322h7.152zm27.648-19.728c2.928 0 4.368 1.872 4.656 5.664h-9.6c.336-3.6 1.872-5.664 4.944-5.664zm10.176 18.768v-5.856c-2.4.768-5.232 1.248-8.112 1.248-4.272 0-6.336-1.44-6.912-4.608h16.08v-1.872c0-7.632-3.168-13.008-11.04-13.008-7.92 0-12.096 5.424-12.096 13.008 0 7.872 4.224 12.528 13.776 12.528 2.928 0 6.096-.528 8.304-1.44zm13.016-8.016v-9.552h5.04v-6h-5.04v-5.088h-7.104v5.088h-2.928v6h2.928v10.368c0 5.04 2.304 8.448 8.112 8.448 1.824 0 2.976-.192 4.032-.48v-6.288c-.624.144-1.344.288-2.16.288-1.92 0-2.88-1.008-2.88-2.784zm8.127-22.224c0 2.64 1.872 4.128 4.512 4.128 2.64 0 4.512-1.488 4.512-4.128s-1.872-4.176-4.512-4.176c-2.64 0-4.512 1.536-4.512 4.176zm.912 31.2h7.152v-24.528h-7.152V322zm34.181-14.688c0-6.576-2.544-10.368-7.92-10.368-3.408 0-5.904 1.728-7.344 4.752v-4.224h-7.152V322h7.152v-13.632c0-3.6 1.776-5.328 4.416-5.328 2.592 0 3.696 1.296 3.696 4.272V322h7.152v-14.688zm19.519 12.048c0 3.504-1.728 6.048-6.768 6.048-3.024 0-5.808-.48-8.544-1.536v6.48c2.592.816 5.568 1.296 9.168 1.296 9.6 0 13.248-5.04 13.248-12.576v-21.6h-7.104v4.272c-1.344-2.928-3.744-4.752-7.104-4.752-6.336 0-9.216 5.568-9.216 12.288 0 7.056 2.832 12.288 8.784 12.288 3.36 0 6.048-1.584 7.536-4.848v2.64zm-9.312-10.08c0-3.984 1.632-6.192 4.848-6.192 2.496 0 4.464 1.68 4.464 5.472v1.296c0 3.984-2.112 5.712-4.752 5.712-2.976 0-4.56-2.112-4.56-6.288zm37.276 3.744v-9.552h5.04v-6h-5.04v-5.088h-7.104v5.088h-2.928v6h2.928v10.368c0 5.04 2.304 8.448 8.112 8.448 1.824 0 2.976-.192 4.032-.48v-6.288c-.624.144-1.344.288-2.16.288-1.92 0-2.88-1.008-2.88-2.784zm19.323-10.752c2.928 0 4.368 1.872 4.656 5.664h-9.6c.336-3.6 1.872-5.664 4.944-5.664zm10.176 18.768v-5.856c-2.4.768-5.232 1.248-8.112 1.248-4.272 0-6.336-1.44-6.912-4.608h16.08v-1.872c0-7.632-3.168-13.008-11.04-13.008-7.92 0-12.096 5.424-12.096 13.008 0 7.872 4.224 12.528 13.776 12.528 2.928 0 6.096-.528 8.304-1.44zm10.617-11.328c0-4.224 1.632-6.576 4.848-6.576 2.496 0 4.464 1.68 4.464 5.616v1.968c0 3.888-2.256 5.568-4.752 5.568-2.976 0-4.56-2.16-4.56-6.576zM428.654 322h7.152v-24.528h-7.152v4.272c-1.344-2.928-3.744-4.752-7.104-4.752-6.384 0-9.264 5.808-9.264 12.72 0 7.344 2.832 12.768 8.832 12.768 3.36 0 6.048-1.584 7.536-4.848V322zm34.199-13.632c0-3.6 1.776-5.328 4.416-5.328 2.592 0 3.696 1.632 3.696 4.896V322h7.152v-14.688c0-6.672-2.448-10.368-7.728-10.368-3.936 0-6.72 2.016-8.112 5.568-1.056-3.6-3.456-5.568-7.344-5.568-3.408 0-5.904 1.728-7.344 4.752v-4.224h-7.152V322h7.152v-13.632c0-3.6 1.776-5.328 4.416-5.328 2.592 0 3.696 1.296 3.696 4.272V322h7.152v-13.632zm65.093.144c0-4.272 2.256-6.48 5.568-6.48 3.36 0 4.848 2.064 4.848 6.336V322h5.424v-14.352c0-6.72-2.784-10.368-8.112-10.368-3.984 0-6.96 2.112-8.352 5.712-1.104-3.648-3.744-5.712-7.776-5.712-3.264 0-5.952 1.632-7.44 4.512v-4.032h-5.424V322h5.424v-13.488c0-4.272 2.256-6.48 5.568-6.48 3.36 0 4.848 1.632 4.848 5.376V322h5.424v-13.488zm20.107-17.232c0 2.16 1.536 3.456 3.6 3.456s3.6-1.296 3.6-3.456-1.536-3.408-3.6-3.408-3.6 1.248-3.6 3.408zm.864 30.72h5.424v-24.24h-5.424V322zm26.713-2.208c0 4.032-1.92 6.96-7.488 6.96-3.024 0-5.76-.528-8.448-1.488v5.088c2.4.768 4.944 1.296 8.784 1.296 9.024 0 12.528-4.896 12.528-12.144V297.76h-5.376v4.272c-1.392-3.024-3.984-4.752-7.392-4.752-6.528 0-9.648 5.664-9.648 12.432 0 7.056 3.024 12.384 9.168 12.384 3.552 0 6.384-1.584 7.872-4.8v2.496zm-11.76-10.08c0-4.896 2.112-7.632 6.144-7.632 3.072 0 5.616 2.064 5.616 6.768v1.632c0 4.752-2.784 6.864-6.048 6.864-3.696 0-5.712-2.544-5.712-7.632zm43.905-2.064c0-6.72-2.784-10.368-8.112-10.368-3.456 0-6.192 1.632-7.728 4.56v-13.872h-5.424V322h5.424v-13.488c0-4.272 2.256-6.48 5.568-6.48 3.36 0 4.848 2.064 4.848 6.336V322h5.424v-14.352zm11.989 6.24v-11.376h5.808v-4.752h-5.808v-5.088h-5.328v5.088h-3.456v4.752h3.456v11.808c0 4.704 2.4 7.872 7.824 7.872 1.488 0 2.448-.192 3.312-.384v-4.992c-.672.144-1.488.288-2.4.288-2.256 0-3.408-1.248-3.408-3.216zm39.761-6.24c0-6.72-2.784-10.368-8.112-10.368-3.456 0-6.192 1.632-7.728 4.56v-13.872h-5.424V322h5.424v-13.488c0-4.272 2.256-6.48 5.568-6.48 3.36 0 4.848 2.064 4.848 6.336V322h5.424v-14.352zm9.253 2.256c0-5.04 2.064-7.776 6.096-7.776 3.072 0 5.664 2.064 5.664 6.768v1.968c0 4.704-2.88 6.768-6.048 6.768-3.696 0-5.712-2.592-5.712-7.728zM680.538 322h5.424v-24.24h-5.424v4.32c-1.392-3.072-3.984-4.8-7.392-4.8-6.576 0-9.744 5.76-9.744 12.624 0 7.152 3.024 12.576 9.264 12.576 3.552 0 6.384-1.632 7.872-4.848V322zm24.413 0l8.592-24.24h-5.472l-6.768 20.256-6.816-20.256h-5.52l8.592 24.24h7.392zm20.923-20.304c3.552 0 5.376 2.256 5.616 6.432h-11.76c.384-3.936 2.304-6.432 6.144-6.432zm9.6 19.344v-4.656c-2.256.72-4.8 1.248-7.632 1.248-5.088 0-7.488-2.112-8.064-5.808h16.944v-1.872c0-7.44-3.072-12.672-10.704-12.672-7.536 0-11.616 5.28-11.616 12.672 0 7.584 4.032 12.528 13.296 12.528 2.64 0 5.712-.432 7.776-1.44zm17.585-11.136c0-5.04 2.064-7.776 6.096-7.776 3.072 0 5.664 2.064 5.664 6.768v1.968c0 4.704-2.88 6.768-6.048 6.768-3.696 0-5.712-2.592-5.712-7.728zM764.819 322h5.424v-24.24h-5.424v4.32c-1.392-3.072-3.984-4.8-7.392-4.8-6.576 0-9.744 5.76-9.744 12.624 0 7.152 3.024 12.576 9.264 12.576 3.552 0 6.384-1.632 7.872-4.848V322zm32.237-14.352c0-6.576-2.928-10.368-8.4-10.368-3.264 0-5.952 1.632-7.44 4.512v-4.032h-5.424V322h5.424v-13.488c0-4.272 2.256-6.48 5.568-6.48 3.36 0 4.848 1.632 4.848 5.376V322h5.424v-14.352zm12.184-16.368c0 2.16 1.536 3.456 3.6 3.456s3.6-1.296 3.6-3.456-1.536-3.408-3.6-3.408-3.6 1.248-3.6 3.408zm.864 30.72h5.424v-24.24h-5.424V322zm28.297-6.816c0-4.08-2.448-6.288-8.304-7.584-3.984-.912-4.992-1.776-4.992-3.264 0-1.584 1.392-2.448 4.032-2.448 2.592 0 5.184.816 8.16 2.16v-4.992c-1.824-1.008-4.848-1.776-8.112-1.776-5.712 0-9.072 2.64-9.072 7.056 0 3.888 2.208 6.192 8.016 7.488 3.936.912 5.184 1.824 5.184 3.36 0 1.584-1.44 2.688-4.128 2.688-3.12 0-6.72-1.152-8.832-2.352v5.136c1.872.96 4.944 1.824 8.688 1.824 6.672 0 9.36-3.024 9.36-7.296zm21.563 0c0-4.08-2.448-6.288-8.304-7.584-3.984-.912-4.992-1.776-4.992-3.264 0-1.584 1.392-2.448 4.032-2.448 2.592 0 5.184.816 8.16 2.16v-4.992c-1.824-1.008-4.848-1.776-8.112-1.776-5.712 0-9.072 2.64-9.072 7.056 0 3.888 2.208 6.192 8.016 7.488 3.936.912 5.184 1.824 5.184 3.36 0 1.584-1.44 2.688-4.128 2.688-3.12 0-6.72-1.152-8.832-2.352v5.136c1.872.96 4.944 1.824 8.688 1.824 6.672 0 9.36-3.024 9.36-7.296zm3.802-3.072c0 6.624 2.928 10.368 8.352 10.368 3.312 0 6-1.632 7.488-4.56V322h5.424v-24.24h-5.424v13.488c0 4.32-2.256 6.48-5.568 6.48-3.36 0-4.848-1.632-4.848-5.376V297.76h-5.424v14.352zm36.999-10.416c3.552 0 5.376 2.256 5.616 6.432h-11.76c.384-3.936 2.304-6.432 6.144-6.432zm9.6 19.344v-4.656c-2.256.72-4.8 1.248-7.632 1.248-5.088 0-7.488-2.112-8.064-5.808h16.944v-1.872c0-7.44-3.072-12.672-10.704-12.672-7.536 0-11.616 5.28-11.616 12.672 0 7.584 4.032 12.528 13.296 12.528 2.64 0 5.712-.432 7.776-1.44zm-585.913 57.848v-11.376h5.808v-4.752h-5.808v-5.088h-5.328v5.088h-3.456v4.752h3.456v11.808c0 4.704 2.4 7.872 7.824 7.872 1.488 0 2.448-.192 3.312-.384v-4.992c-.672.144-1.488.288-2.4.288-2.256 0-3.408-1.248-3.408-3.216zm31.838-6.24c0-6.72-2.784-10.368-8.112-10.368-3.456 0-6.192 1.632-7.728 4.56v-13.872h-5.424V387h5.424v-13.488c0-4.272 2.256-6.48 5.568-6.48 3.36 0 4.848 2.064 4.848 6.336V387h5.424v-14.352zm9.254 2.256c0-5.04 2.064-7.776 6.096-7.776 3.072 0 5.664 2.064 5.664 6.768v1.968c0 4.704-2.88 6.768-6.048 6.768-3.696 0-5.712-2.592-5.712-7.728zM377.304 387h5.424v-24.24h-5.424v4.32c-1.392-3.072-3.984-4.8-7.392-4.8-6.576 0-9.744 5.76-9.744 12.624 0 7.152 3.024 12.576 9.264 12.576 3.552 0 6.384-1.632 7.872-4.848V387zm17.788-8.112v-11.376h5.808v-4.752h-5.808v-5.088h-5.328v5.088h-3.456v4.752h3.456v11.808c0 4.704 2.4 7.872 7.824 7.872 1.488 0 2.448-.192 3.312-.384v-4.992c-.672.144-1.488.288-2.4.288-2.256 0-3.408-1.248-3.408-3.216zm27.809 8.016v-4.656c-.48.048-.72.048-1.152.048-1.536 0-2.784-.672-2.784-2.544v-26.784h-5.424v27.456c0 4.752 2.688 6.72 6.912 6.72 1.248 0 2.064-.096 2.448-.24zm13.713.624c7.344 0 11.664-5.328 11.664-12.672 0-7.392-4.32-12.576-11.664-12.576-7.392 0-11.712 5.184-11.712 12.576 0 7.344 4.32 12.672 11.712 12.672zm0-20.4c4.416 0 6.336 3.552 6.336 7.728s-1.92 7.776-6.336 7.776c-4.464 0-6.432-3.6-6.432-7.776s1.968-7.728 6.432-7.728zm26.297 20.4c7.344 0 11.664-5.328 11.664-12.672 0-7.392-4.32-12.576-11.664-12.576-7.392 0-11.712 5.184-11.712 12.576 0 7.344 4.32 12.672 11.712 12.672zm0-20.4c4.416 0 6.336 3.552 6.336 7.728s-1.92 7.776-6.336 7.776c-4.464 0-6.432-3.6-6.432-7.776s1.968-7.728 6.432-7.728zM484.216 387v-11.232L493.528 387h6.72l-10.56-12.336 10.176-11.904h-6.576l-9.072 11.232v-21.024h-5.424V387h5.424zm35.998-6.816c0-4.08-2.448-6.288-8.304-7.584-3.984-.912-4.992-1.776-4.992-3.264 0-1.584 1.392-2.448 4.032-2.448 2.592 0 5.184.816 8.16 2.16v-4.992c-1.824-1.008-4.848-1.776-8.112-1.776-5.712 0-9.072 2.64-9.072 7.056 0 3.888 2.208 6.192 8.016 7.488 3.936.912 5.184 1.824 5.184 3.36 0 1.584-1.44 2.688-4.128 2.688-3.12 0-6.72-1.152-8.832-2.352v5.136c1.872.96 4.944 1.824 8.688 1.824 6.672 0 9.36-3.024 9.36-7.296zm21.468 6.72v-4.656c-.48.048-.72.048-1.152.048-1.536 0-2.784-.672-2.784-2.544v-26.784h-5.424v27.456c0 4.752 2.688 6.72 6.912 6.72 1.248 0 2.064-.096 2.448-.24zm2.668-30.624c0 2.16 1.536 3.456 3.6 3.456s3.6-1.296 3.6-3.456-1.536-3.408-3.6-3.408-3.6 1.248-3.6 3.408zm.864 30.72h5.424v-24.24h-5.424V387zm16.392 0v-11.232L570.918 387h6.72l-10.56-12.336 10.176-11.904h-6.576l-9.072 11.232v-21.024h-5.424V387h5.424zm27.862-20.304c3.552 0 5.376 2.256 5.616 6.432h-11.76c.384-3.936 2.304-6.432 6.144-6.432zm9.6 19.344v-4.656c-2.256.72-4.8 1.248-7.632 1.248-5.088 0-7.488-2.112-8.064-5.808h16.944v-1.872c0-7.44-3.072-12.672-10.704-12.672-7.536 0-11.616 5.28-11.616 12.672 0 7.584 4.032 12.528 13.296 12.528 2.64 0 5.712-.432 7.776-1.44zm20.321-7.152v-11.376h5.808v-4.752h-5.808v-5.088h-5.328v5.088h-3.456v4.752h3.456v11.808c0 4.704 2.4 7.872 7.824 7.872 1.488 0 2.448-.192 3.312-.384v-4.992c-.672.144-1.488.288-2.4.288-2.256 0-3.408-1.248-3.408-3.216zm31.839-6.24c0-6.72-2.784-10.368-8.112-10.368-3.456 0-6.192 1.632-7.728 4.56v-13.872h-5.424V387h5.424v-13.488c0-4.272 2.256-6.48 5.568-6.48 3.36 0 4.848 2.064 4.848 6.336V387h5.424v-14.352zm4.309-16.368c0 2.16 1.536 3.456 3.6 3.456s3.6-1.296 3.6-3.456-1.536-3.408-3.6-3.408-3.6 1.248-3.6 3.408zm.864 30.72h5.424v-24.24h-5.424V387zm28.297-6.816c0-4.08-2.448-6.288-8.304-7.584-3.984-.912-4.992-1.776-4.992-3.264 0-1.584 1.392-2.448 4.032-2.448 2.592 0 5.184.816 8.16 2.16v-4.992c-1.824-1.008-4.848-1.776-8.112-1.776-5.712 0-9.072 2.64-9.072 7.056 0 3.888 2.208 6.192 8.016 7.488 3.936.912 5.184 1.824 5.184 3.36 0 1.584-1.44 2.688-4.128 2.688-3.12 0-6.72-1.152-8.832-2.352v5.136c1.872.96 4.944 1.824 8.688 1.824 6.672 0 9.36-3.024 9.36-7.296z" fill="#05214D"/><rect x="81" y="498" width="840" height="210" rx="10" fill="#fff" filter="url(#filter0_d_16_8)"/><path stroke="#E67931" stroke-width="5" stroke-linecap="round" stroke-linejoin="round" d="M191.884 630.5v26M180.353 640l11.54-11 11.541 11"/><path fill-rule="evenodd" clip-rule="evenodd" d="M117 623a5 5 0 0 0-5 5v31a5 5 0 0 0 5 5h31a5 5 0 0 0 5-5v-31a5 5 0 0 0-5-5h-31zm27.768 15.768a2.501 2.501 0 0 0-3.536-3.536L129 647.464l-4.232-4.232a2.501 2.501 0 0 0-3.536 3.536l6 6a2.501 2.501 0 0 0 3.536 0l14-14z" fill="#4EADE7"/><path d="M132.058 566.178h-12.543v-22.952h-4.157V570h16.7v-3.822zm11.297.798c-2.171 0-3.748-1.058-3.748-2.876 0-1.782 1.261-2.728 4.045-2.913l4.935-.316v1.689c0 2.504-2.226 4.416-5.232 4.416zm-1.021 3.358c2.654 0 4.862-1.15 6.068-3.173h.315V570h3.841v-13.805c0-4.267-2.858-6.791-7.923-6.791-4.583 0-7.849 2.227-8.257 5.697h3.86c.445-1.429 1.985-2.246 4.211-2.246 2.728 0 4.138 1.207 4.138 3.34v1.744l-5.473.316c-4.806.297-7.515 2.393-7.515 6.03 0 3.693 2.839 6.049 6.735 6.049zm32.821-20.54h-3.989v11.819c0 3.173-1.763 5.084-4.992 5.084-2.931 0-4.249-1.558-4.249-4.824v-12.079h-3.989v13.118c0 4.75 2.486 7.478 6.958 7.478 3.062 0 5.121-1.299 6.105-3.6h.315V570h3.841v-20.206zM180.83 570h3.989v-11.819c0-3.155 1.874-5.121 4.824-5.121 2.951 0 4.361 1.614 4.361 4.861V570h3.989v-13.081c0-4.806-2.486-7.515-6.995-7.515-3.043 0-5.047 1.355-6.03 3.6h-.297v-3.21h-3.841V570zm39.778-13.601c-.519-4.045-3.581-6.995-8.646-6.995-5.882 0-9.463 3.952-9.463 10.428 0 6.587 3.6 10.558 9.482 10.558 4.991 0 8.108-2.821 8.627-6.884h-3.877c-.52 2.171-2.246 3.321-4.769 3.321-3.321 0-5.381-2.616-5.381-6.995 0-4.305 2.041-6.865 5.381-6.865 2.672 0 4.305 1.466 4.769 3.432h3.877zM225.244 570h3.99v-11.801c0-3.061 1.818-5.121 5.084-5.121 2.82 0 4.323 1.633 4.323 4.861V570h3.989v-13.044c0-4.806-2.653-7.533-6.958-7.533-3.043 0-5.177 1.354-6.16 3.618h-.315v-11.133h-3.953V570zm34.581-25.234v5.121h-3.21v3.358h3.21v11.411c0 3.897 1.763 5.455 6.197 5.455.78 0 1.522-.092 2.171-.204v-3.321c-.556.056-.909.093-1.521.093-1.986 0-2.858-.928-2.858-3.043v-10.391h4.379v-3.358h-4.379v-5.121h-3.989zM272.959 570h3.989v-11.801c0-3.061 1.819-5.121 5.084-5.121 2.821 0 4.324 1.633 4.324 4.861V570h3.989v-13.044c0-4.806-2.653-7.533-6.958-7.533-3.043 0-5.177 1.354-6.16 3.618h-.316v-11.133h-3.952V570zm31.188-17.2c2.95 0 4.88 2.059 4.973 5.232h-10.206c.223-3.154 2.283-5.232 5.233-5.232zm4.954 11.745c-.742 1.577-2.394 2.449-4.806 2.449-3.191 0-5.251-2.245-5.381-5.789v-.223h14.269v-1.391c0-6.346-3.396-10.187-9.018-10.187-5.696 0-9.314 4.101-9.314 10.558s3.544 10.428 9.333 10.428c4.62 0 7.849-2.227 8.758-5.845h-3.841zm45.342-14.751h-3.989l-3.6 15.419h-.315l-4.156-15.419h-3.823l-4.156 15.419h-.297l-3.618-15.419h-4.045L332.011 570h4.1l4.156-14.881h.316L344.758 570h4.137l5.548-20.206zm11.52 3.006c2.95 0 4.88 2.059 4.973 5.232h-10.205c.222-3.154 2.282-5.232 5.232-5.232zm4.954 11.745c-.742 1.577-2.393 2.449-4.806 2.449-3.191 0-5.25-2.245-5.38-5.789v-.223h14.268v-1.391c0-6.346-3.395-10.187-9.017-10.187-5.697 0-9.315 4.101-9.315 10.558s3.544 10.428 9.333 10.428c4.62 0 7.849-2.227 8.758-5.845h-3.841zm19.461 5.789c5.103 0 8.35-4.045 8.35-10.446 0-6.42-3.229-10.428-8.35-10.428-2.764 0-5.139 1.336-6.215 3.544h-.316v-11.096h-3.989V570h3.841v-3.191h.297c1.206 2.226 3.562 3.525 6.382 3.525zm-1.15-17.293c3.377 0 5.399 2.598 5.399 6.847 0 4.286-2.022 6.865-5.399 6.865-3.358 0-5.437-2.616-5.455-6.847.018-4.23 2.115-6.865 5.455-6.865zm31.074 13.935c-2.171 0-3.748-1.058-3.748-2.876 0-1.782 1.261-2.728 4.045-2.913l4.935-.316v1.689c0 2.504-2.226 4.416-5.232 4.416zm-1.021 3.358c2.654 0 4.862-1.15 6.068-3.173h.315V570h3.841v-13.805c0-4.267-2.858-6.791-7.923-6.791-4.583 0-7.849 2.227-8.257 5.697h3.86c.445-1.429 1.985-2.246 4.211-2.246 2.728 0 4.138 1.207 4.138 3.34v1.744l-5.473.316c-4.806.297-7.515 2.393-7.515 6.03 0 3.693 2.839 6.049 6.735 6.049zm23.172 0c2.784 0 5.14-1.317 6.346-3.525h.315V570h3.823v-28.092h-3.99v11.096h-.296c-1.095-2.227-3.433-3.544-6.198-3.544-5.102 0-8.386 4.045-8.386 10.428 0 6.401 3.247 10.446 8.386 10.446zm1.132-17.293c3.34 0 5.437 2.653 5.437 6.865 0 4.231-2.078 6.847-5.437 6.847-3.377 0-5.399-2.579-5.399-6.865 0-4.249 2.041-6.847 5.399-6.847zm32.338-3.247h-4.23l-5.01 15.938h-.315l-5.029-15.938h-4.267L464.364 570h4.286l7.273-20.206zm11.446 3.006c2.95 0 4.88 2.059 4.973 5.232h-10.206c.223-3.154 2.283-5.232 5.233-5.232zm4.954 11.745c-.742 1.577-2.394 2.449-4.806 2.449-3.191 0-5.251-2.245-5.381-5.789v-.223h14.269v-1.391c0-6.346-3.395-10.187-9.018-10.187-5.696 0-9.314 4.101-9.314 10.558s3.544 10.428 9.333 10.428c4.62 0 7.849-2.227 8.758-5.845h-3.841zm8.755 5.455h3.989v-11.931c0-2.839 2.134-4.75 5.159-4.75.705 0 1.892.13 2.226.242v-3.934c-.427-.111-1.187-.167-1.781-.167-2.635 0-4.88 1.447-5.455 3.433h-.297v-3.099h-3.841V570zm17.55-25.234v5.121h-3.21v3.358h3.21v11.411c0 3.897 1.763 5.455 6.197 5.455.78 0 1.522-.092 2.171-.204v-3.321c-.556.056-.909.093-1.521.093-1.985 0-2.858-.928-2.858-3.043v-10.391h4.379v-3.358h-4.379v-5.121h-3.989zM531.651 570h3.971v-20.206h-3.971V570zm1.985-23.75c1.485 0 2.579-1.058 2.579-2.431 0-1.391-1.094-2.449-2.579-2.449-1.484 0-2.579 1.058-2.579 2.449 0 1.373 1.095 2.431 2.579 2.431zm7.271 9.259c0 3.006 1.781 4.731 5.622 5.64l3.526.817c2.022.482 2.968 1.262 2.968 2.468 0 1.614-1.762 2.727-4.249 2.727-2.412 0-3.896-.965-4.397-2.523h-3.989c.352 3.581 3.488 5.752 8.293 5.752 4.825 0 8.369-2.542 8.369-6.346 0-2.969-1.8-4.62-5.641-5.511l-3.358-.779c-2.19-.501-3.21-1.262-3.21-2.468 0-1.577 1.688-2.635 3.915-2.635 2.263 0 3.711.947 4.082 2.431h3.822c-.39-3.562-3.358-5.678-7.904-5.678-4.565 0-7.849 2.524-7.849 6.105zM561.815 570h3.971v-20.206h-3.971V570zm1.986-23.75c1.484 0 2.579-1.058 2.579-2.431 0-1.391-1.095-2.449-2.579-2.449-1.485 0-2.579 1.058-2.579 2.449 0 1.373 1.094 2.431 2.579 2.431zm7.734 23.75h3.99v-11.819c0-3.155 1.874-5.121 4.824-5.121 2.95 0 4.36 1.614 4.36 4.861V570h3.99v-13.081c0-4.806-2.487-7.515-6.996-7.515-3.043 0-5.046 1.355-6.03 3.6h-.297v-3.21h-3.841V570zm31.133-3.748c-3.433 0-5.363-2.579-5.363-6.606 0-4.026 1.93-6.605 5.363-6.605 3.395 0 5.473 2.579 5.473 6.605 0 4.045-2.059 6.606-5.473 6.606zm.055 11.467c5.715 0 9.333-2.932 9.333-7.552v-20.373h-3.822v3.228h-.315c-1.132-2.189-3.563-3.562-6.346-3.562-5.158 0-8.387 4.045-8.387 10.205 0 6.049 3.192 10.038 8.35 10.038 2.783 0 5.01-1.206 6.234-3.395h.297v3.878c0 2.671-1.967 4.249-5.288 4.249-2.691 0-4.379-.947-4.713-2.413h-4.082c.427 3.433 3.692 5.697 8.739 5.697zm31.89-10.743c-2.17 0-3.748-1.058-3.748-2.876 0-1.782 1.262-2.728 4.045-2.913l4.936-.316v1.689c0 2.504-2.227 4.416-5.233 4.416zm-1.02 3.358c2.653 0 4.861-1.15 6.067-3.173h.316V570h3.841v-13.805c0-4.267-2.858-6.791-7.923-6.791-4.583 0-7.849 2.227-8.257 5.697h3.859c.446-1.429 1.986-2.246 4.212-2.246 2.728 0 4.138 1.207 4.138 3.34v1.744l-5.474.316c-4.805.297-7.514 2.393-7.514 6.03 0 3.693 2.838 6.049 6.735 6.049zm15.323-14.825c0 3.006 1.782 4.731 5.622 5.64l3.526.817c2.022.482 2.969 1.262 2.969 2.468 0 1.614-1.763 2.727-4.249 2.727-2.413 0-3.897-.965-4.398-2.523h-3.989c.352 3.581 3.488 5.752 8.294 5.752 4.824 0 8.368-2.542 8.368-6.346 0-2.969-1.8-4.62-5.641-5.511l-3.358-.779c-2.19-.501-3.21-1.262-3.21-2.468 0-1.577 1.688-2.635 3.915-2.635 2.264 0 3.711.947 4.082 2.431h3.822c-.389-3.562-3.358-5.678-7.904-5.678-4.564 0-7.849 2.524-7.849 6.105zm20 0c0 3.006 1.781 4.731 5.622 5.64l3.525.817c2.023.482 2.969 1.262 2.969 2.468 0 1.614-1.763 2.727-4.249 2.727-2.412 0-3.897-.965-4.398-2.523h-3.989c.353 3.581 3.488 5.752 8.294 5.752 4.824 0 8.368-2.542 8.368-6.346 0-2.969-1.8-4.62-5.64-5.511l-3.359-.779c-2.189-.501-3.21-1.262-3.21-2.468 0-1.577 1.689-2.635 3.915-2.635 2.264 0 3.711.947 4.082 2.431h3.823c-.39-3.562-3.359-5.678-7.905-5.678-4.564 0-7.848 2.524-7.848 6.105zm29.128-2.709c2.95 0 4.88 2.059 4.973 5.232h-10.206c.223-3.154 2.283-5.232 5.233-5.232zm4.954 11.745c-.742 1.577-2.394 2.449-4.806 2.449-3.191 0-5.251-2.245-5.381-5.789v-.223h14.269v-1.391c0-6.346-3.395-10.187-9.018-10.187-5.696 0-9.314 4.101-9.314 10.558s3.544 10.428 9.333 10.428c4.62 0 7.849-2.227 8.758-5.845h-3.841zm10.165-19.779v5.121h-3.21v3.358h3.21v11.411c0 3.897 1.763 5.455 6.198 5.455.779 0 1.521-.092 2.17-.204v-3.321c-.556.056-.909.093-1.521.093-1.985 0-2.857-.928-2.857-3.043v-10.391h4.378v-3.358h-4.378v-5.121h-3.99zm12.188 10.743c0 3.006 1.781 4.731 5.622 5.64l3.525.817c2.023.482 2.969 1.262 2.969 2.468 0 1.614-1.762 2.727-4.249 2.727-2.412 0-3.896-.965-4.397-2.523h-3.99c.353 3.581 3.489 5.752 8.294 5.752 4.825 0 8.369-2.542 8.369-6.346 0-2.969-1.8-4.62-5.641-5.511l-3.358-.779c-2.19-.501-3.21-1.262-3.21-2.468 0-1.577 1.688-2.635 3.915-2.635 2.263 0 3.711.947 4.082 2.431h3.822c-.39-3.562-3.358-5.678-7.904-5.678-4.565 0-7.849 2.524-7.849 6.105z" fill="#172B4D"/><path d="M734.498 647.405v-3.34h-10.984v3.489h6.902v.575c-.037 3.971-3.043 6.642-7.422 6.642-5.028 0-8.182-3.896-8.182-10.205 0-6.197 3.135-10.112 8.09-10.112 3.655 0 6.197 1.763 7.236 4.991h4.175c-.909-5.418-5.325-8.869-11.411-8.869-7.497 0-12.339 5.492-12.339 14.028 0 8.646 4.787 14.045 12.376 14.045 7.013 0 11.559-4.397 11.559-11.244zm5.62-16.179V658h9.667c7.978 0 12.598-4.917 12.598-13.471 0-8.424-4.657-13.303-12.598-13.303h-9.667zm4.156 3.785h5.047c5.548 0 8.832 3.525 8.832 9.574 0 6.142-3.229 9.63-8.832 9.63h-5.047v-19.204zm35.381 14.157v-3.915h-12.172v3.915h12.172zm5.527-10.205v.056h3.933v-.056c0-2.858 1.986-4.787 4.936-4.787 2.764 0 4.861 1.837 4.861 4.286 0 1.967-.872 3.377-4.453 7.106l-9.055 9.426V658h18.035v-3.729h-12.246v-.316l5.956-6.03c4.491-4.546 5.864-6.865 5.864-9.704 0-4.416-3.748-7.645-8.832-7.645-5.27 0-8.999 3.451-8.999 8.387z" fill="#5E6C84"/><circle cx="859" cy="644" r="35" fill="#C4C4C4"/><path d="M859 679c19.33 0 35-15.67 35-35s-15.67-35-35-35-35 15.67-35 35 15.67 35 35 35z" fill="#00C7E5"/><path d="M880.694 671.464l-7.894-4.4a1.368 1.368 0 0 0-.702-.229L859 666.151l-13.098.684a1.426 1.426 0 0 0-.702.229l-7.895 4.4A34.835 34.835 0 0 0 859 679a34.83 34.83 0 0 0 21.694-7.536z" fill="#79E2F2"/><path d="M871.31 668.207c-.29.4-5.31 7.069-13.582 6.426-6.696-.519-10.472-5.444-11.041-6.21.634-.478 2.671-2.135 3.352-5.075.982-4.249-1.711-7.519-2.026-7.891h20.935c-.145.197-3.222 4.468-1.277 8.873 1.011 2.283 2.86 3.448 3.639 3.877z" fill="url(#paint0_linear_16_8)"/><path d="M847.625 643.552c.613 2.417-.47 4.777-2.412 5.269-1.944.492-4.014-1.072-4.626-3.489-.613-2.417.47-4.777 2.412-5.269 1.944-.493 4.014 1.069 4.626 3.489z" fill="url(#paint1_linear_16_8)"/><path d="M870.567 643.552c-.613 2.417.47 4.777 2.411 5.269 1.942.492 4.014-1.072 4.627-3.489.612-2.417-.471-4.777-2.412-5.269-1.944-.493-4.017 1.069-4.626 3.489z" fill="url(#paint2_linear_16_8)"/><path d="M858.967 621.605c7.577.047 12.187 5.174 12.901 5.991 4.807 5.527 4.296 12.106 4.189 13.492-.262 3.407-1.638 6.117-4.274 11.588a75.255 75.255 0 0 1-4.038 7.323 4.323 4.323 0 0 1-1.707 1.556 16.909 16.909 0 0 1-7.071 1.843 16.913 16.913 0 0 1-7.071-1.843 4.32 4.32 0 0 1-1.706-1.556 74.879 74.879 0 0 1-4.039-7.323c-2.636-5.474-4.008-8.181-4.273-11.588-.107-1.386-.616-7.965 4.189-13.492.711-.817 5.323-5.944 12.9-5.991z" fill="#533E37"/><path opacity=".5" d="M867.02 650.147c-3.689-.008-6.672-3.019-6.664-6.724.008-3.705 3.005-6.702 6.694-6.694 3.689.008 6.672 3.019 6.664 6.724-.009 3.705-3.005 6.702-6.694 6.694z" fill="url(#paint3_linear_16_8)"/><path opacity=".5" d="M851.191 650.147c-3.689-.008-6.672-3.019-6.664-6.724.008-3.705 3.005-6.702 6.694-6.694 3.689.008 6.672 3.019 6.664 6.724-.006 3.705-3.003 6.702-6.694 6.694z" fill="url(#paint4_linear_16_8)"/><path d="M862.128 637.908c.129-.12.219-.192.328-.279a6.096 6.096 0 0 1 1.007-.615c.464-.23.954-.408 1.451-.536a8.538 8.538 0 0 1 3.06-.211c1.028.11 2.024.44 2.912.935.446.246.867.536 1.25.873.38.339.736.705 1.012 1.175a.329.329 0 0 1-.121.452.335.335 0 0 1-.41-.061l-.019-.021a5.01 5.01 0 0 0-1.009-.826 7.81 7.81 0 0 0-1.181-.618 7.685 7.685 0 0 0-2.551-.596 9.245 9.245 0 0 0-3.845.645c-.199.085-.399.17-.588.268-.095.046-.188.098-.281.15-.085.05-.192.112-.244.145l-.063.039a.582.582 0 1 1-.708-.919zM855.399 638.791c-.055-.033-.159-.098-.244-.145a3.734 3.734 0 0 0-.281-.15c-.189-.101-.388-.184-.588-.268a8.077 8.077 0 0 0-1.241-.397 9.219 9.219 0 0 0-2.604-.249 7.752 7.752 0 0 0-2.551.596 7.995 7.995 0 0 0-1.181.618 5.079 5.079 0 0 0-1.009.826l-.019.022a.333.333 0 0 1-.468.019.333.333 0 0 1-.06-.41c.274-.47.632-.837 1.012-1.176a7.26 7.26 0 0 1 1.249-.872 7.68 7.68 0 0 1 2.913-.935 8.535 8.535 0 0 1 3.059.21c.498.129.987.307 1.452.536.233.115.46.244.681.386.11.071.216.15.326.23.112.087.199.158.328.279a.584.584 0 1 1-.709.921l-.065-.041zM848.341 641.137a5.287 5.287 0 0 1 2.85-.96 4.99 4.99 0 0 1 2.92.807.25.25 0 0 1 .071.35.256.256 0 0 1-.334.082 5.92 5.92 0 0 0-1.282-.522 5.207 5.207 0 0 0-1.367-.189 5.286 5.286 0 0 0-1.378.183 5.715 5.715 0 0 0-1.305.531.167.167 0 0 1-.227-.063.175.175 0 0 1 .052-.219zM869.462 641.419a5.708 5.708 0 0 0-1.304-.531 5.293 5.293 0 0 0-1.379-.183c-.462.006-.924.06-1.367.189a5.94 5.94 0 0 0-1.282.522.252.252 0 0 1-.345-.098.26.26 0 0 1 .082-.334 4.99 4.99 0 0 1 2.921-.807 5.278 5.278 0 0 1 2.849.96.168.168 0 0 1 .041.233.164.164 0 0 1-.216.049z" fill="#230F05"/><path d="M866.487 642.436a.886.886 0 1 0 0-1.773.886.886 0 0 0 0 1.773zM851.374 642.436a.886.886 0 1 0 0-1.773.886.886 0 0 0 0 1.773z" fill="#230F05"/><path d="M875.431 637.279l-.968 4.304c-.243 1.077.148 2.209.968 2.811 0 0 .99-2.595 1.217-3.848.229-1.252-1.217-3.267-1.217-3.267zM842.4 637.279l.913 4.304c.23 1.077-.14 2.209-.913 2.811 0 0-.936-2.595-1.149-3.848-.216-1.252 1.149-3.267 1.149-3.267z" fill="#0C1F41"/><path d="M855.943 649.247c.511-.295 1.137-.451 1.764-.35.158.025.322.08.464.145.143.066.247.123.356.156.216.066.47.085.694.041.23-.041.465-.161.739-.276.27-.118.577-.2.88-.227.61-.066 1.217.074 1.745.32a.18.18 0 0 1 .087.24.185.185 0 0 1-.224.096c-.511-.169-1.042-.249-1.55-.169a2.844 2.844 0 0 0-.736.221c-.243.104-.509.252-.834.32a1.894 1.894 0 0 1-.971-.049c-.161-.052-.303-.131-.415-.186a1.17 1.17 0 0 0-.334-.118c-.484-.109-1.012-.024-1.509.167a.182.182 0 0 1-.235-.104.19.19 0 0 1 .079-.227zM857.305 640.659c.224.462.383.954.487 1.46.098.506.139 1.025.123 1.542a6.91 6.91 0 0 1-.238 1.528 6.164 6.164 0 0 1-.585 1.422.227.227 0 0 1-.307.085.223.223 0 0 1-.095-.279c.183-.446.333-.9.437-1.364.101-.465.172-.936.181-1.411a7.416 7.416 0 0 0-.083-1.419 8.424 8.424 0 0 0-.336-1.392.223.223 0 0 1 .142-.282.222.222 0 0 1 .274.11z" fill="#230F05"/><path d="M863.824 654.483c-1.586-.103-2.262-.921-3.7-.869-.241.008-1.118.473-1.124.47-.003.003-.88-.462-1.124-.47-1.438-.052-2.113.766-3.699.869a5.01 5.01 0 0 1-1.116-.051c.273.333 2.376 2.81 5.939 2.81s5.666-2.477 5.939-2.81a5.003 5.003 0 0 1-1.115.051z" fill="#8C715D"/><path d="M864.939 654.432a17.86 17.86 0 0 1-1.178-.186c-1.794-.345-2.475-.76-3.637-.632-.263.03-.632.096-1.067.26a4.456 4.456 0 0 0-1.178-.26c-1.211-.101-1.881.342-3.648.656a16.57 16.57 0 0 1-1.167.162 17.674 17.674 0 0 0 6.051 1.031 17.554 17.554 0 0 0 5.824-1.031z" fill="#72594B"/><path d="M852.5 653.833c1.026.476 2.092.842 3.183 1.091 1.094.235 2.207.383 3.325.358a14.896 14.896 0 0 0 3.317-.399 13.88 13.88 0 0 0 1.611-.476c.53-.18 1.05-.402 1.561-.64a.166.166 0 0 1 .219.08.165.165 0 0 1-.063.21 12.542 12.542 0 0 1-3.188 1.376 12.856 12.856 0 0 1-3.457.47 13.38 13.38 0 0 1-1.744-.112 11.79 11.79 0 0 1-1.715-.337 12.787 12.787 0 0 1-3.204-1.334.165.165 0 0 1-.058-.224.17.17 0 0 1 .213-.063zM850.611 654.177c-.167-.361-.142-.795.011-1.164.156-.367.437-.681.798-.829a.114.114 0 0 1 .145.06.107.107 0 0 1-.005.096l-.003.003c-.175.309-.325.577-.427.866a4.432 4.432 0 0 0-.207.911v.008a.162.162 0 0 1-.186.137.15.15 0 0 1-.126-.088z" fill="#230F05"/><path d="M859 615.614c1.02-.008 1.993 1.258 3 1.332 1.025.077 2.184-1.028 3.171-.864 1.023.169 1.753 1.591 2.71 1.859 1.009.282 2.385-.544 3.287-.153.968.421 1.274 1.98 2.084 2.529.872.594 2.458.35 3.095 1.1.667.782.145 2.266.497 3.221.34.913 1.718 1.695 1.718 2.772 0 .681-1.25 1.332-1.277 1.999-.028.684 1.162 1.433 1.11 2.095-.055.689-1.348 1.241-1.425 1.895-.079.691 1.053 1.525.957 2.168-.106.7-1.438 1.159-1.556 1.788-.134.714.93 1.633.791 2.237-.175.749-1.545 1.088-1.709 1.635-.356 1.179-.208 2.625-.356 2.592-.126-.027.678-2.072.435-4.03-.123-.987-1.526-1.879-1.859-3.068-.29-1.031.462-2.546-.071-3.593-.495-.968-2.125-1.23-2.893-2.111-.709-.809-.739-2.483-1.731-3.136-.881-.583-2.428.011-3.569-.391-.984-.348-1.78-1.81-2.983-1.985-1.036-.151-2.245.995-3.459.995-1.211 0-2.42-1.149-3.453-.995-1.203.175-1.996 1.637-2.981 1.985-1.14.402-2.688-.189-3.565.391-.99.656-1.018 2.327-1.723 3.139-.766.88-2.395 1.145-2.885 2.116-.53 1.047.227 2.562-.057 3.59-.328 1.19-1.731 2.087-1.849 3.074-.235 1.952.574 3.995.449 4.022-.148.033 0-1.414-.356-2.592-.167-.547-1.534-.886-1.709-1.635-.142-.605.924-1.523.79-2.237-.12-.629-1.451-1.088-1.555-1.785-.099-.643 1.036-1.477.957-2.169-.077-.653-1.37-1.206-1.425-1.895-.052-.661 1.138-1.411 1.11-2.094-.027-.667-1.277-1.318-1.277-1.999 0-1.077 1.378-1.86 1.717-2.773.356-.957-.169-2.439.501-3.224.637-.746 2.223-.505 3.095-1.099.809-.549 1.113-2.111 2.084-2.529.902-.391 2.277.435 3.286.153.957-.268 1.685-1.69 2.707-1.859.988-.164 2.15.94 3.175.864 1.004-.077 1.977-1.343 2.997-1.335z" fill="#0C1F41"/><defs><filter id="filter0_d_16_8" x="60.5" y="477.5" width="881" height="251" filterUnits="userSpaceOnUse" color-interpolation-filters="sRGB"><feFlood flood-opacity="0" result="BackgroundImageFix"/><feColorMatrix in="SourceAlpha" values="0 0 0 0 0 0 0 0 0 0 0 0 0 0 0 0 0 0 127 0" result="hardAlpha"/><feMorphology radius=".5" operator="dilate" in="SourceAlpha" result="effect1_dropShadow_16_8"/><feOffset/><feGaussianBlur stdDeviation="10"/><feColorMatrix values="0 0 0 0 0.701961 0 0 0 0 0.960784 0 0 0 0 1 0 0 0 1 0"/><feBlend mode="multiply" in2="BackgroundImageFix" result="effect1_dropShadow_16_8"/><feBlend in="SourceGraphic" in2="effect1_dropShadow_16_8" result="shape"/></filter><linearGradient id="paint0_linear_16_8" x1="859" y1="674.677" x2="859" y2="655.456" gradientUnits="userSpaceOnUse"><stop offset=".171" stop-color="#533E37"/><stop offset=".812" stop-color="#412B24"/><stop offset="1" stop-color="#3B241E"/></linearGradient><linearGradient id="paint1_linear_16_8" x1="840.415" y1="644.44" x2="847.796" y2="644.44" gradientUnits="userSpaceOnUse"><stop offset=".171" stop-color="#533E37"/><stop offset=".453" stop-color="#412B24"/><stop offset=".536" stop-color="#3B241E"/></linearGradient><linearGradient id="paint2_linear_16_8" x1="870.395" y1="644.44" x2="877.775" y2="644.44" gradientUnits="userSpaceOnUse"><stop offset=".464" stop-color="#3B241E"/><stop offset=".547" stop-color="#412B24"/><stop offset=".829" stop-color="#533E37"/></linearGradient><linearGradient id="paint3_linear_16_8" x1="867.043" y1="636.71" x2="867.013" y2="650.126" gradientUnits="userSpaceOnUse"><stop stop-color="#230F05"/><stop offset=".673" stop-color="#230F05" stop-opacity="0"/></linearGradient><linearGradient id="paint4_linear_16_8" x1="851.216" y1="636.71" x2="851.186" y2="650.126" gradientUnits="userSpaceOnUse"><stop stop-color="#230F05"/><stop offset=".673" stop-color="#230F05" stop-opacity="0"/></linearGradient></defs></svg>